<svg width="157" height="157" viewBox="0 0 157 157" fill="none" xmlns="http://www.w3.org/2000/svg">
<path d="M20 38.84C20 32.2454 20 28.9481 21.2834 26.4293C22.4123 24.2137 24.2137 22.4123 26.4293 21.2834C28.9481 20 32.2454 20 38.84 20H78.875C79.8174 20 80.7213 20.3744 81.3876 21.0408L113.159 52.8124C113.826 53.4787 114.2 54.3826 114.2 55.325V118.91C114.2 125.505 114.2 128.802 112.917 131.321C111.788 133.536 109.986 135.338 107.771 136.467C105.252 137.75 101.955 137.75 95.36 137.75H38.84C32.2454 137.75 28.9481 137.75 26.4293 136.467C24.2137 135.338 22.4123 133.536 21.2834 131.321C20 128.802 20 125.505 20 118.91V38.84Z" fill="url(#paint0_linear_9167_4797)"/>
<path opacity="0.3" d="M78.875 20L114.2 55.325H90.65C84.1468 55.325 78.875 50.0532 78.875 43.55V20Z" fill="white"/>
<path d="M94.0583 90.6382H69.9472M94.0583 73.9166L76.836 73.9166M94.0583 108.361H42.3916M42.3916 73.9166H53.1553M53.1553 73.9166H63.9194M53.1553 73.9166V95.4444" stroke="white" stroke-width="4" stroke-linecap="round" stroke-linejoin="round"/>
<path d="M123.983 129.784C123.248 128.902 122.881 128.462 122.619 127.971C122.387 127.535 122.218 127.072 122.115 126.593C122 126.053 122 125.488 122 124.359L122 27.6757C122 23.4365 125.582 20 130 20C134.418 20 138 23.4365 138 27.6757L138 124.359C138 125.488 138 126.053 137.884 126.593C137.782 127.072 137.613 127.535 137.381 127.971C137.119 128.462 136.752 128.902 136.017 129.784L131.229 135.526C130.807 136.032 130.596 136.285 130.343 136.378C130.122 136.459 129.878 136.459 129.657 136.378C129.404 136.285 129.193 136.032 128.771 135.526L123.983 129.784Z" fill="url(#paint1_linear_9167_4797)"/>
<defs>
<linearGradient id="paint0_linear_9167_4797" x1="20" y1="20" x2="127.528" y2="82.3351" gradientUnits="userSpaceOnUse">
<stop stop-color="#66D9C6"/>
<stop offset="1" stop-color="#009688"/>
</linearGradient>
<linearGradient id="paint1_linear_9167_4797" x1="122" y1="20" x2="146.164" y2="22.3946" gradientUnits="userSpaceOnUse">
<stop stop-color="#66D9C6"/>
<stop offset="1" stop-color="#009688"/>
</linearGradient>
</defs>
</svg>
